HIERARCHY
ROOT Hips
{
	OFFSET 0.000000 0.000000 0.000000
	CHANNELS 6 Xposition Yposition Zposition Zrotation Yrotation Xrotation 
	JOINT LHipJoint
	{
		OFFSET 0.000000 0.000000 0.000000
		CHANNELS 3 Zrotation Yrotation Xrotation
		JOINT LeftUpLeg
		{
			OFFSET 1.363060 -1.794630 0.839290
			CHANNELS 3 Zrotation Yrotation Xrotation
			JOINT LeftLeg
			{
				OFFSET 2.448110 -6.726130 0.000000
				CHANNELS 3 Zrotation Yrotation Xrotation
				JOINT LeftFoot
				{
					OFFSET 2.562200 -7.039590 0.000000
					CHANNELS 3 Zrotation Yrotation Xrotation
					JOINT LeftToeBase
					{
						OFFSET 0.157640 -0.433110 2.322550
						CHANNELS 3 Zrotation Yrotation Xrotation
						End Site
						{
							OFFSET 0.000000 0.000000 0.000000
						}
					}
				}
			}
		}
	}
	JOINT RHipJoint
	{
		OFFSET 0.000000 0.000000 0.000000
		CHANNELS 3 Zrotation Yrotation Xrotation
		JOINT RightUpLeg
		{
			OFFSET -1.305520 -1.794630 0.839290
			CHANNELS 3 Zrotation Yrotation Xrotation
			JOINT RightLeg
			{
				OFFSET -2.542530 -6.985550 0.000000
				CHANNELS 3 Zrotation Yrotation Xrotation
				JOINT RightFoot
				{
					OFFSET -2.568260 -7.056230 0.000000
					CHANNELS 3 Zrotation Yrotation Xrotation
					JOINT RightToeBase
					{
						OFFSET -0.164730 -0.452590 2.363150
						CHANNELS 3 Zrotation Yrotation Xrotation
						End Site
						{
							OFFSET 0.000000 0.000000 0.000000
						}
					}
				}
			}
		}
	}
	JOINT LowerBack
	{
		OFFSET 0.000000 0.000000 0.000000
		CHANNELS 3 Zrotation Yrotation Xrotation
		JOINT Spine
		{
			OFFSET 0.028270 2.035590 -0.193380
			CHANNELS 3 Zrotation Yrotation Xrotation
			JOINT Spine1
			{
				OFFSET 0.056720 2.048850 -0.042750
				CHANNELS 3 Zrotation Yrotation Xrotation
				JOINT Neck
				{
					OFFSET 0.000000 0.000000 0.000000
					CHANNELS 3 Zrotation Yrotation Xrotation
					JOINT Neck1
					{
						OFFSET -0.054170 1.746240 0.172020
						CHANNELS 3 Zrotation Yrotation Xrotation
						JOINT Head
						{
							OFFSET 0.104070 1.761360 -0.123970
							CHANNELS 3 Zrotation Yrotation Xrotation
							End Site
							{
								OFFSET 0.000000 0.000000 0.000000
							}
						}
					}
				}
				JOINT LeftShoulder
				{
					OFFSET 0.000000 0.000000 0.000000
					CHANNELS 3 Zrotation Yrotation Xrotation
					JOINT LeftArm
					{
						OFFSET 3.362410 1.200890 -0.311210
						CHANNELS 3 Zrotation Yrotation Xrotation
						JOINT LeftForeArm
						{
							OFFSET 4.983000 -0.000000 -0.000000
							CHANNELS 3 Zrotation Yrotation Xrotation
							JOINT LeftHand
							{
								OFFSET 3.483560 -0.000000 -0.000000
								CHANNELS 3 Zrotation Yrotation Xrotation
								JOINT LeftFingerBase
								{
									OFFSET 0.000000 0.000000 0.000000
									CHANNELS 3 Zrotation Yrotation Xrotation
									JOINT LeftHandIndex1
									{
										OFFSET 0.715260 -0.000000 -0.000000
										CHANNELS 3 Zrotation Yrotation Xrotation
										End Site
										{
											OFFSET 0.000000 0.000000 0.000000
										}
									}
								}
								JOINT LThumb
								{
									OFFSET 0.000000 0.000000 0.000000
									CHANNELS 3 Zrotation Yrotation Xrotation
									End Site
									{
										OFFSET 0.000000 0.000000 0.000000
									}
								}
							}
						}
					}
				}
				JOINT RightShoulder
				{
					OFFSET 0.000000 0.000000 0.000000
					CHANNELS 3 Zrotation Yrotation Xrotation
					JOINT RightArm
					{
						OFFSET -3.136600 1.374050 -0.404650
						CHANNELS 3 Zrotation Yrotation Xrotation
						JOINT RightForeArm
						{
							OFFSET -5.241900 -0.000000 -0.000000
							CHANNELS 3 Zrotation Yrotation Xrotation
							JOINT RightHand
							{
								OFFSET -3.444170 -0.000000 -0.000000
								CHANNELS 3 Zrotation Yrotation Xrotation
								JOINT RightFingerBase
								{
									OFFSET 0.000000 0.000000 0.000000
									CHANNELS 3 Zrotation Yrotation Xrotation
									JOINT RightHandIndex1
									{
										OFFSET -0.622530 -0.000000 -0.000000
										CHANNELS 3 Zrotation Yrotation Xrotation
										End Site
										{
											OFFSET 0.000000 0.000000 0.000000
										}
									}
								}
								JOINT RThumb
								{
									OFFSET 0.000000 0.000000 0.000000
									CHANNELS 3 Zrotation Yrotation Xrotation
									End Site
									{
										OFFSET 0.000000 0.000000 0.000000
									}
								}
							}
						}
					}
				}
			}
		}
	}
}
MOTION
Frames: 12
Frame Time: 0.008333
3.420481 16.961850 1.497746 6.634445 37.115010 9.787389 -11.917791 5.102124 -0.964282 -2.904605 18.201837 -5.182422 -0.644618 2.370913 36.852117 0.955315 1.851410 15.637272 0.273200 -0.000000 -89.035301 8.594335 -0.234083 -0.275406 15.328276 -11.864117 -29.817479 1.951144 -0.212827 20.952646 -4.452436 -16.935911 -15.098300 -178.846400 0.000000 -2.946399 3.760738 -5.828592 -0.263550 0.878564 -6.090373 -2.306635 -3.092958 -6.265358 2.688177 8.739934 -19.408503 -10.482801 -1.149158 -0.038574 -0.708756 0.000000 0.000000 0.000000 10.679562 5.210421 2.307077 -12.001937 -7.707873 -22.521271 -0.318847 -49.609650 -0.123730 13.825668 1.636739 0.142200 -0.270609 0.488268 0.000000 0.000000 0.000000 0.000000 0.000000 0.000000 0.000000 10.525938 -18.569284 1.466667 38.170679 -18.602313 -43.233061 2.375708 32.357741 0.001545 -3.557779 4.904092 -0.165888 0.162685 -0.213281 0.000000 0.000000 0.000000 0.000000 0.000000 0.000000 0.000000 
3.462021 16.933111 1.597902 6.324472 36.621190 9.401873 -12.045231 5.040652 -1.062085 -2.251539 18.573215 -6.058909 -0.503153 2.494576 39.228114 1.040314 1.450243 17.140555 0.085100 0.000000 -88.028600 8.533426 -0.292399 -0.434989 15.716897 -12.068718 -30.070219 1.987758 -0.410373 22.810074 -4.356529 -16.336487 -15.917966 -178.564900 -0.000000 -4.084600 4.012575 -5.770546 -0.009024 0.893293 -6.044973 -2.269062 -3.222352 -6.217308 2.632968 8.821897 -19.391291 -10.537864 -1.201837 -0.042003 -0.726002 0.000000 0.000000 0.000000 10.631081 5.314399 2.195566 -12.526104 -7.376858 -22.303370 -0.296429 -51.497217 -0.126422 14.119160 1.502828 0.127810 -0.267690 0.492333 0.000000 0.000000 0.000000 0.000000 0.000000 0.000000 0.000000 10.664867 -18.499355 1.499271 39.138195 -18.284752 -43.487184 2.361401 32.529859 0.000423 -3.793205 4.723457 -0.169990 0.162309 -0.208726 0.000000 0.000000 0.000000 0.000000 0.000000 0.000000 0.000000 
3.499259 16.900266 1.696154 6.017329 36.110221 9.009161 -12.157085 4.958089 -1.187899 -1.597642 18.966510 -6.976314 -0.372070 2.622378 41.695809 1.133532 1.150861 18.518722 -0.081300 -0.000001 -86.075800 8.485033 -0.339814 -0.595234 16.083067 -12.230188 -30.275678 2.012714 -0.599964 24.638346 -4.276098 -15.796297 -16.796429 -178.278400 0.000000 -5.146000 4.227312 -5.710551 0.285651 0.896174 -5.994661 -2.223071 -3.364858 -6.163890 2.573990 8.940755 -19.367625 -10.600631 -1.256499 -0.045415 -0.745822 0.000000 0.000000 0.000000 10.615451 5.410712 2.083214 -13.083663 -7.035449 -22.024648 -0.279024 -53.442041 -0.128927 14.399194 1.385585 0.114720 -0.265040 0.495555 0.000000 0.000000 0.000000 0.000000 0.000000 0.000000 0.000000 10.840443 -18.422584 1.536985 40.176028 -17.856271 -43.689834 2.352408 32.626184 -0.000587 -3.990761 4.518228 -0.170794 0.161412 -0.203455 0.000000 0.000000 0.000000 0.000000 0.000000 0.000000 0.000000 
3.532274 16.862973 1.792725 5.717669 35.590079 8.612199 -12.251334 4.856188 -1.339297 -0.949933 19.371309 -7.925364 -0.251119 2.756917 44.231099 1.232505 1.045005 19.676217 -0.176700 0.000000 -83.317800 8.448876 -0.377165 -0.756526 16.428103 -12.361422 -30.427960 2.027746 -0.779522 26.419073 -4.211045 -15.317185 -17.722912 -177.989200 0.000000 -6.110201 4.402999 -5.649480 0.616357 0.886867 -5.940309 -2.169232 -3.520958 -6.105884 2.512107 9.097749 -19.338379 -10.670956 -1.314667 -0.048940 -0.768157 0.000000 0.000000 0.000000 10.623911 5.501898 1.972446 -13.656442 -6.700403 -21.678965 -0.266743 -55.422402 -0.131093 14.651687 1.294399 0.104530 -0.262554 0.497720 0.000000 0.000000 0.000000 0.000000 0.000000 0.000000 0.000000 11.062752 -18.340052 1.577966 41.262849 -17.331638 -43.806011 2.349622 32.658869 -0.001451 -4.156444 4.305331 -0.169396 0.160096 -0.197544 0.000000 0.000000 0.000000 0.000000 0.000000 0.000000 0.000000 
3.561285 16.821186 1.887883 5.430454 35.068907 8.217065 -12.326983 4.737500 -1.512177 -0.319016 19.773468 -8.903772 -0.137647 2.901289 46.815376 1.334578 1.220908 20.517780 -0.149800 -0.000000 -79.782300 8.424248 -0.405560 -0.918067 16.753135 -12.472033 -30.528675 2.034761 -0.947920 28.140704 -4.160783 -14.897442 -18.688305 -177.698601 0.000000 -6.970200 4.539419 -5.588091 0.975791 0.865295 -5.882897 -2.109005 -3.691953 -6.044149 2.447332 9.292252 -19.300805 -10.747318 -1.378934 -0.052830 -0.792539 0.000000 0.000000 0.000000 10.645039 5.585587 1.865868 -14.227519 -6.379329 -21.260955 -0.259663 -57.424021 -0.132759 14.863179 1.234883 0.098041 -0.260103 0.498638 0.000000 0.000000 0.000000 0.000000 0.000000 0.000000 0.000000 11.342933 -18.249216 1.620212 42.376369 -16.729965 -43.803923 2.354027 32.638459 -0.002138 -4.298638 4.103905 -0.166798 0.158480 -0.191059 0.000000 0.000000 0.000000 0.000000 0.000000 0.000000 0.000000 
3.586710 16.775056 1.981833 5.158677 34.553767 7.829063 -12.384634 4.604379 -1.700726 0.284026 20.156254 -9.909921 -0.027185 3.057151 49.421395 1.439655 1.754832 20.983117 0.042400 -0.000000 -75.826200 8.409843 -0.426349 -1.080293 17.060653 -12.575020 -30.586111 2.036260 -1.105485 29.801855 -4.122957 -14.526856 -19.685521 -177.407900 0.000000 -7.731900 4.639896 -5.526456 1.356822 0.832173 -5.822900 -2.043752 -3.878955 -5.979037 2.380226 9.521292 -19.252327 -10.828468 -1.452035 -0.057344 -0.818616 0.000000 0.000000 0.000000 10.664577 5.665484 1.765325 -14.783653 -6.089384 -20.768530 -0.257521 -59.429416 -0.133782 15.022525 1.206637 0.095355 -0.257530 0.498210 -0.000000 0.000000 0.000000 0.000000 0.000000 0.000000 0.000000 11.690627 -18.147959 1.661616 43.495411 -16.065943 -43.659863 2.366343 32.571262 -0.002623 -4.425944 3.933472 -0.164399 0.156660 -0.184080 0.000000 0.000000 0.000000 0.000000 0.000000 0.000000 0.000000 
3.609063 16.725051 2.074713 4.904213 34.049712 7.455464 -12.426042 4.459110 -1.898381 0.847537 20.501756 -10.949429 0.084772 3.225624 52.031350 1.547840 2.681365 21.017766 0.414800 0.000000 -71.463700 8.403780 -0.441004 -1.241629 17.353423 -12.673534 -30.611669 2.034003 -1.252712 31.403088 -4.096101 -14.198442 -20.707263 -177.118500 0.000001 -8.409200 4.710233 -5.464302 1.749975 0.788688 -5.760628 -1.975676 -4.083416 -5.910742 2.310227 9.779055 -19.186052 -10.911363 -1.537294 -0.062824 -0.845522 0.000000 0.000000 0.000000 10.666631 5.738446 1.672948 -15.315254 -5.832388 -20.201616 -0.260092 -61.430514 -0.134023 15.120854 1.204193 0.095871 -0.254702 0.496367 -0.000000 0.000000 0.000000 0.000000 0.000000 0.000000 0.000000 12.113021 -18.029645 1.700442 44.601277 -15.355820 -43.359003 2.386958 32.460338 -0.002895 -4.549174 3.811362 -0.163498 0.154724 -0.176682 0.000000 0.000000 0.000000 0.000000 0.000000 0.000000 0.000000 
3.628884 16.671837 2.166572 4.667739 33.558504 7.102654 -12.453625 4.303115 -2.097899 1.359746 20.790551 -12.024267 0.201726 3.405210 54.613990 1.662523 4.005702 20.614701 0.955400 0.000000 -67.059000 8.404149 -0.450638 -1.401249 17.633922 -12.768223 -30.617377 2.029421 -1.390681 32.949030 -4.078116 -13.902777 -21.745888 -176.832301 -0.000000 -9.021000 4.757975 -5.400887 2.147391 0.736589 -5.695911 -1.906528 -4.305719 -5.839015 2.237606 10.057700 -19.095670 -10.993240 -1.637343 -0.069549 -0.872524 0.000000 0.000000 0.000000 10.637143 5.807805 1.589747 -15.820983 -5.620051 -19.563903 -0.266747 -63.413366 -0.133398 15.152572 1.214626 0.097892 -0.251495 0.493196 -0.000000 0.000000 0.000000 0.000000 0.000000 0.000000 0.000000 12.612907 -17.888637 1.735262 45.679971 -14.607205 -42.899858 2.415507 32.303246 -0.002960 -4.678284 3.749084 -0.164897 0.152715 -0.168956 0.000000 0.000000 0.000000 0.000000 0.000000 0.000000 0.000000 
3.646797 16.616268 2.257382 4.447835 33.078255 6.777107 -12.470328 4.137575 -2.292257 1.810522 21.004963 -13.138517 0.325201 3.593403 57.141618 1.786984 5.686426 19.782970 1.618700 0.000000 -62.769700 8.408646 -0.456351 -1.556713 17.904913 -12.850149 -30.614402 2.023246 -1.520216 34.442579 -4.067865 -13.634534 -22.792881 -176.551600 0.000000 -9.587100 4.791867 -5.335120 2.540460 0.678020 -5.628243 -1.838369 -4.545571 -5.763310 2.162398 10.346919 -18.972833 -11.070262 -1.754317 -0.077770 -0.898596 0.000000 0.000000 0.000000 10.563773 5.874589 1.516515 -16.307754 -5.455904 -18.861182 -0.276780 -65.366762 -0.131843 15.114056 1.219097 0.098819 -0.247811 0.488871 -0.000000 0.000000 0.000000 0.000000 0.000000 0.000000 0.000000 13.187494 -17.717176 1.765288 46.723193 -13.822775 -42.292389 2.450913 32.092954 -0.002846 -4.824063 3.751935 -0.169595 0.150641 -0.161013 0.000000 0.000000 0.000000 0.000000 0.000000 0.000000 0.000000 
3.663415 16.559408 2.347010 4.241668 32.604054 6.484521 -12.479489 3.963824 -2.475639 2.193905 21.132658 -14.296975 0.454684 3.787506 59.590975 1.922580 7.637788 18.536074 2.330500 -0.000000 -58.477600 8.414567 -0.459384 -1.704459 18.170113 -12.902911 -30.610239 2.015569 -1.641771 35.883521 -4.065016 -13.392470 -23.838095 -176.278100 0.000000 -10.125100 4.821707 -5.265855 2.921063 0.615450 -5.557041 -1.773438 -4.802037 -5.683069 2.083912 10.634637 -18.807667 -11.137090 -1.889711 -0.087702 -0.922303 0.000000 0.000000 0.000000 10.435075 5.933373 1.454386 -16.785705 -5.328837 -18.099216 -0.289425 -67.284676 -0.129318 15.003523 1.197083 0.095852 -0.243608 0.483576 -0.000000 0.000000 0.000000 0.000000 0.000000 0.000000 0.000000 13.828425 -17.505749 1.790585 47.727832 -13.002134 -41.553996 2.491397 31.820425 -0.002600 -4.999024 3.817894 -0.178092 0.148487 -0.152968 0.000000 0.000000 0.000000 0.000000 0.000000 0.000000 0.000000 
3.679282 16.502314 2.435310 4.046641 32.127492 6.229553 -12.483726 3.782695 -2.642358 2.505681 21.161620 -15.497328 0.587794 3.982702 61.926107 2.071630 9.761927 16.939495 3.012701 -0.000000 -54.436600 8.419970 -0.460301 -1.841643 18.431587 -12.908854 -30.609249 2.006168 -1.755777 37.270194 -4.069055 -13.175560 -24.870176 -176.013999 0.000000 -10.647300 4.854994 -5.191907 3.282846 0.551354 -5.481441 -1.713205 -5.071860 -5.597512 2.003231 10.908237 -18.592371 -11.189427 -2.043192 -0.099376 -0.942556 0.000000 0.000000 0.000000 10.247335 5.989911 1.402865 -17.279342 -5.244710 -17.285453 -0.303578 -69.146780 -0.125846 14.821383 1.122736 0.085692 -0.238848 0.477680 -0.000000 0.000000 0.000000 0.000000 0.000000 0.000000 0.000000 14.521058 -17.247366 1.811508 48.696783 -12.134205 -40.713211 2.534394 31.472108 -0.002290 -5.211634 3.935298 -0.190591 0.146186 -0.144991 0.000000 0.000000 0.000000 0.000000 0.000000 0.000000 0.000000 
3.694854 16.446128 2.522121 3.859168 31.637872 6.015819 -12.485449 3.595661 -2.788339 2.746585 21.086580 -16.736931 0.721012 4.174871 64.119638 2.232099 11.937623 15.054361 3.585000 0.000000 -50.584200 8.422863 -0.459888 -1.964535 18.691826 -12.846426 -30.610973 1.994530 -1.862186 38.596540 -4.080090 -12.986135 -25.876898 -175.760700 -0.000000 -11.160400 4.898156 -5.112311 3.619756 0.488111 -5.400712 -1.659260 -5.351103 -5.506057 1.920800 11.154838 -18.318697 -11.221956 -2.213502 -0.112747 -0.957972 0.000000 0.000000 0.000000 9.998614 6.043534 1.362050 -17.814077 -5.194521 -16.424702 -0.318225 -70.936653 -0.121452 14.568999 0.973850 0.065740 -0.233549 0.471483 -0.000000 0.000000 0.000000 0.000000 0.000000 0.000000 0.000000 15.246118 -16.934132 1.829180 49.637833 -11.206936 -39.800035 2.576951 31.036128 -0.001999 -5.469565 4.085951 -0.206691 0.143665 -0.137269 0.000000 0.000000 0.000000 0.000000 0.000000 0.000000 0.000000 
